<svg width="20" height="14" viewBox="0 0 20 14" fill="none" xmlns="http://www.w3.org/2000/svg">
<path d="M2.17196 8H18.3428C18.8951 8 19.3428 7.55228 19.3428 7C19.3428 6.44772 18.8951 6 18.3428 6H2.17196C2.27029 5.73746 2.45212 5.44118 2.81143 5.01793C3.21196 4.54612 3.77166 3.98532 4.57537 3.18162L6.04988 1.70711C6.4404 1.31658 6.4404 0.683418 6.04988 0.292893C5.65936 -0.0976311 5.02619 -0.0976311 4.63567 0.292893L3.13089 1.79767C2.36456 2.56399 1.74639 3.18215 1.28675 3.72358C0.81348 4.28106 0.449762 4.82271 0.244345 5.45492C-0.0819454 6.45913 -0.0819454 7.54087 0.244345 8.54508C0.449762 9.17729 0.81348 9.71894 1.28675 10.2764C1.7464 10.8179 2.36452 11.436 3.13088 12.2023L4.63567 13.7071C5.02619 14.0976 5.65936 14.0976 6.04988 13.7071C6.4404 13.3166 6.4404 12.6834 6.04988 12.2929L4.57536 10.8184C3.77166 10.0147 3.21196 9.45388 2.81143 8.98207C2.45212 8.55882 2.27029 8.26254 2.17196 8Z" fill="#6D7E5C"/>
</svg>
