<svg width="206" height="23" viewBox="0 0 206 23" fill="none" xmlns="http://www.w3.org/2000/svg">
<path d="M0.0160001 22V1.14H7.8C9.21867 1.14 10.4693 1.40133 11.552 1.924C12.6533 2.428 13.512 3.17467 14.128 4.164C14.744 5.13467 15.052 6.32 15.052 7.72C15.052 9.10133 14.7347 10.2867 14.1 11.276C13.484 12.2467 12.6347 12.9933 11.552 13.516C10.4693 14.0387 9.21867 14.3 7.8 14.3H3.824V22H0.0160001ZM3.824 10.94H7.856C8.54667 10.94 9.144 10.8093 9.648 10.548C10.152 10.268 10.544 9.88533 10.824 9.4C11.104 8.91467 11.244 8.35467 11.244 7.72C11.244 7.06667 11.104 6.50667 10.824 6.04C10.544 5.55467 10.152 5.18133 9.648 4.92C9.144 4.64 8.54667 4.5 7.856 4.5H3.824V10.94ZM21.2739 22.336C20.2099 22.336 19.2859 22.1587 18.5019 21.804C17.7179 21.4493 17.1112 20.9453 16.6819 20.292C16.2526 19.62 16.0379 18.8453 16.0379 17.968C16.0379 17.128 16.2246 16.3813 16.5979 15.728C16.9712 15.056 17.5499 14.496 18.3339 14.048C19.1179 13.6 20.1072 13.2827 21.3019 13.096L26.2859 12.284V15.084L22.0019 15.812C21.2739 15.9427 20.7326 16.176 20.3779 16.512C20.0232 16.848 19.8459 17.2867 19.8459 17.828C19.8459 18.3507 20.0419 18.7707 20.4339 19.088C20.8446 19.3867 21.3486 19.536 21.9459 19.536C22.7112 19.536 23.3832 19.3773 23.9619 19.06C24.5592 18.724 25.0166 18.2667 25.3339 17.688C25.6699 17.1093 25.8379 16.4747 25.8379 15.784V11.864C25.8379 11.2107 25.5766 10.6693 25.0539 10.24C24.5499 9.792 23.8779 9.568 23.0379 9.568C22.2539 9.568 21.5539 9.78267 20.9379 10.212C20.3406 10.6227 19.9019 11.1733 19.6219 11.864L16.6259 10.408C16.9246 9.60533 17.3912 8.91467 18.0259 8.336C18.6792 7.73867 19.4446 7.272 20.3219 6.936C21.1992 6.6 22.1512 6.432 23.1779 6.432C24.4286 6.432 25.5299 6.66533 26.4819 7.132C27.4339 7.58 28.1712 8.21467 28.6939 9.036C29.2352 9.83867 29.5059 10.7813 29.5059 11.864V22H26.0339V19.396L26.8179 19.34C26.4259 19.9933 25.9592 20.544 25.4179 20.992C24.8766 21.4213 24.2606 21.7573 23.5699 22C22.8792 22.224 22.1139 22.336 21.2739 22.336ZM39.2587 22.168C37.5413 22.168 36.2067 21.7013 35.2547 20.768C34.3213 19.816 33.8547 18.4813 33.8547 16.764V10.044H31.2227V6.768H31.5027C32.2493 6.768 32.828 6.572 33.2387 6.18C33.6493 5.788 33.8547 5.21867 33.8547 4.472V3.296H37.5227V6.768H41.0227V10.044H37.5227V16.568C37.5227 17.072 37.6067 17.5013 37.7747 17.856C37.9613 18.2107 38.2413 18.4813 38.6147 18.668C39.0067 18.8547 39.5013 18.948 40.0987 18.948C40.2293 18.948 40.3787 18.9387 40.5467 18.92C40.7333 18.9013 40.9107 18.8827 41.0787 18.864V22C40.8173 22.0373 40.5187 22.0747 40.1827 22.112C39.8467 22.1493 39.5387 22.168 39.2587 22.168ZM43.5731 22V6.768H47.0171V10.156L46.7371 9.652C47.0917 8.51333 47.6424 7.72 48.3891 7.272C49.1544 6.824 50.0691 6.6 51.1331 6.6H52.0291V9.848H50.7131C49.6677 9.848 48.8277 10.1747 48.1931 10.828C47.5584 11.4627 47.2411 12.3587 47.2411 13.516V22H43.5731ZM53.7377 22V6.768H57.4057V22H53.7377ZM53.7377 5.06V1.14H57.4057V5.06H53.7377ZM67.8204 22.336C66.3084 22.336 64.9457 21.9907 63.7324 21.3C62.5377 20.5907 61.5951 19.6387 60.9044 18.444C60.2137 17.2307 59.8684 15.868 59.8684 14.356C59.8684 12.844 60.2137 11.4907 60.9044 10.296C61.5951 9.10133 62.5377 8.15867 63.7324 7.468C64.9457 6.77733 66.3084 6.432 67.8204 6.432C68.9031 6.432 69.9111 6.628 70.8444 7.02C71.7777 7.39333 72.5804 7.916 73.2524 8.588C73.9431 9.24133 74.4377 10.0253 74.7364 10.94L71.5164 12.34C71.2364 11.5747 70.7604 10.9587 70.0884 10.492C69.4351 10.0253 68.6791 9.792 67.8204 9.792C67.0177 9.792 66.2991 9.988 65.6644 10.38C65.0484 10.772 64.5631 11.3133 64.2084 12.004C63.8537 12.6947 63.6764 13.488 63.6764 14.384C63.6764 15.28 63.8537 16.0733 64.2084 16.764C64.5631 17.4547 65.0484 17.996 65.6644 18.388C66.2991 18.78 67.0177 18.976 67.8204 18.976C68.6977 18.976 69.4631 18.7427 70.1164 18.276C70.7697 17.8093 71.2364 17.184 71.5164 16.4L74.7364 17.856C74.4377 18.7147 73.9524 19.4893 73.2804 20.18C72.6084 20.852 71.8057 21.384 70.8724 21.776C69.9391 22.1493 68.9217 22.336 67.8204 22.336ZM77.2116 22V0.803999H80.8796V14.692L79.4796 14.272L86.6476 6.768H91.2116L85.5836 12.9L91.3236 22H87.1236L82.1396 14.104L84.3236 13.656L79.7316 18.584L80.8796 16.344V22H77.2116ZM98.0403 22V1.14H105.796C107.215 1.14 108.466 1.40133 109.548 1.924C110.65 2.428 111.508 3.17467 112.124 4.164C112.74 5.13467 113.048 6.32 113.048 7.72C113.048 9.15733 112.703 10.38 112.012 11.388C111.34 12.396 110.426 13.1427 109.268 13.628L114.056 22H109.744L104.62 12.844L107.084 14.3H101.848V22H98.0403ZM101.848 10.94H105.852C106.543 10.94 107.14 10.8093 107.644 10.548C108.148 10.268 108.54 9.88533 108.82 9.4C109.1 8.91467 109.24 8.35467 109.24 7.72C109.24 7.06667 109.1 6.50667 108.82 6.04C108.54 5.55467 108.148 5.18133 107.644 4.92C107.14 4.64 106.543 4.5 105.852 4.5H101.848V10.94ZM115.936 22V6.768H119.604V22H115.936ZM115.936 5.06V1.14H119.604V5.06H115.936ZM130.019 22.336C128.507 22.336 127.144 21.9907 125.931 21.3C124.736 20.5907 123.793 19.6387 123.103 18.444C122.412 17.2307 122.067 15.868 122.067 14.356C122.067 12.844 122.412 11.4907 123.103 10.296C123.793 9.10133 124.736 8.15867 125.931 7.468C127.144 6.77733 128.507 6.432 130.019 6.432C131.101 6.432 132.109 6.628 133.043 7.02C133.976 7.39333 134.779 7.916 135.451 8.588C136.141 9.24133 136.636 10.0253 136.935 10.94L133.715 12.34C133.435 11.5747 132.959 10.9587 132.287 10.492C131.633 10.0253 130.877 9.792 130.019 9.792C129.216 9.792 128.497 9.988 127.863 10.38C127.247 10.772 126.761 11.3133 126.407 12.004C126.052 12.6947 125.875 13.488 125.875 14.384C125.875 15.28 126.052 16.0733 126.407 16.764C126.761 17.4547 127.247 17.996 127.863 18.388C128.497 18.78 129.216 18.976 130.019 18.976C130.896 18.976 131.661 18.7427 132.315 18.276C132.968 17.8093 133.435 17.184 133.715 16.4L136.935 17.856C136.636 18.7147 136.151 19.4893 135.479 20.18C134.807 20.852 134.004 21.384 133.071 21.776C132.137 22.1493 131.12 22.336 130.019 22.336ZM146.634 22.336C145.066 22.336 143.694 21.9813 142.518 21.272C141.342 20.5627 140.427 19.6013 139.774 18.388C139.121 17.1747 138.794 15.8307 138.794 14.356C138.794 12.8253 139.121 11.472 139.774 10.296C140.446 9.10133 141.351 8.15867 142.49 7.468C143.647 6.77733 144.935 6.432 146.354 6.432C147.549 6.432 148.594 6.628 149.49 7.02C150.405 7.412 151.179 7.95333 151.814 8.644C152.449 9.33467 152.934 10.128 153.27 11.024C153.606 11.9013 153.774 12.8533 153.774 13.88C153.774 14.1413 153.755 14.412 153.718 14.692C153.699 14.972 153.653 15.2147 153.578 15.42H141.818V12.62H151.506L149.77 13.936C149.938 13.0773 149.891 12.312 149.63 11.64C149.387 10.968 148.977 10.436 148.398 10.044C147.838 9.652 147.157 9.456 146.354 9.456C145.589 9.456 144.907 9.652 144.31 10.044C143.713 10.4173 143.255 10.9773 142.938 11.724C142.639 12.452 142.527 13.3387 142.602 14.384C142.527 15.3173 142.649 16.148 142.966 16.876C143.302 17.5853 143.787 18.136 144.422 18.528C145.075 18.92 145.822 19.116 146.662 19.116C147.502 19.116 148.211 18.9387 148.79 18.584C149.387 18.2293 149.854 17.7533 150.19 17.156L153.158 18.612C152.859 19.34 152.393 19.984 151.758 20.544C151.123 21.104 150.367 21.5427 149.49 21.86C148.631 22.1773 147.679 22.336 146.634 22.336ZM171.023 22.336C169.53 22.336 168.148 22.0653 166.879 21.524C165.628 20.9827 164.527 20.2267 163.575 19.256C162.642 18.2853 161.914 17.1467 161.391 15.84C160.868 14.5333 160.607 13.1053 160.607 11.556C160.607 10.0067 160.859 8.57867 161.363 7.272C161.886 5.94667 162.614 4.808 163.547 3.856C164.499 2.88533 165.61 2.13867 166.879 1.616C168.148 1.07467 169.53 0.803999 171.023 0.803999C172.516 0.803999 173.851 1.056 175.027 1.56C176.222 2.064 177.23 2.736 178.051 3.576C178.872 4.39733 179.46 5.30267 179.815 6.292L176.399 7.888C176.007 6.84267 175.344 5.984 174.411 5.312C173.478 4.62133 172.348 4.276 171.023 4.276C169.716 4.276 168.559 4.584 167.551 5.2C166.562 5.816 165.787 6.66533 165.227 7.748C164.686 8.83067 164.415 10.1 164.415 11.556C164.415 13.012 164.686 14.2907 165.227 15.392C165.787 16.4747 166.562 17.324 167.551 17.94C168.559 18.556 169.716 18.864 171.023 18.864C172.348 18.864 173.478 18.528 174.411 17.856C175.344 17.1653 176.007 16.2973 176.399 15.252L179.815 16.848C179.46 17.8373 178.872 18.752 178.051 19.592C177.23 20.4133 176.222 21.076 175.027 21.58C173.851 22.084 172.516 22.336 171.023 22.336ZM189.465 22.336C187.972 22.336 186.609 21.9907 185.377 21.3C184.164 20.6093 183.193 19.6667 182.465 18.472C181.756 17.2773 181.401 15.9147 181.401 14.384C181.401 12.8533 181.756 11.4907 182.465 10.296C183.193 9.10133 184.164 8.15867 185.377 7.468C186.59 6.77733 187.953 6.432 189.465 6.432C190.958 6.432 192.312 6.77733 193.525 7.468C194.738 8.15867 195.7 9.10133 196.409 10.296C197.137 11.472 197.501 12.8347 197.501 14.384C197.501 15.9147 197.137 17.2773 196.409 18.472C195.681 19.6667 194.71 20.6093 193.497 21.3C192.284 21.9907 190.94 22.336 189.465 22.336ZM189.465 18.976C190.286 18.976 191.005 18.78 191.621 18.388C192.256 17.996 192.75 17.4547 193.105 16.764C193.478 16.0547 193.665 15.2613 193.665 14.384C193.665 13.488 193.478 12.704 193.105 12.032C192.75 11.3413 192.256 10.8 191.621 10.408C191.005 9.99733 190.286 9.792 189.465 9.792C188.625 9.792 187.888 9.99733 187.253 10.408C186.618 10.8 186.114 11.3413 185.741 12.032C185.386 12.704 185.209 13.488 185.209 14.384C185.209 15.2613 185.386 16.0547 185.741 16.764C186.114 17.4547 186.618 17.996 187.253 18.388C187.888 18.78 188.625 18.976 189.465 18.976ZM201.711 22V18.08H205.407V22H201.711Z" fill="#323232"/>
</svg>
