<svg width="113" height="130" viewBox="0 0 113 130" fill="none" xmlns="http://www.w3.org/2000/svg">
<path opacity="0.5" d="M106.044 1.01877C105.661 0.284203 104.755 -0.000783924 104.021 0.382234C103.286 0.765252 103.001 1.67123 103.384 2.4058L106.044 1.01877ZM71.8993 67.8423L71.6011 66.3723L71.8993 67.8423ZM1.06915 116.785C0.422714 117.303 0.318657 118.247 0.836735 118.894L9.27934 129.428C9.79743 130.075 10.7415 130.179 11.3879 129.661C12.0343 129.142 12.1384 128.198 11.6203 127.552L4.11577 118.188L13.4796 110.684C14.1261 110.166 14.2301 109.221 13.712 108.575C13.194 107.929 12.2499 107.825 11.6035 108.343L1.06915 116.785ZM103.384 2.4058C107.96 11.1816 111.78 24.8565 108.615 37.4306C107.042 43.6824 103.739 49.6831 97.9003 54.7291C92.0504 59.7846 83.5843 63.9414 71.6011 66.3723L72.1975 69.3124C84.5579 66.805 93.534 62.4675 99.8619 56.9989C106.201 51.5209 109.812 44.9679 111.525 38.1628C114.932 24.623 110.816 10.1711 106.044 1.01877L103.384 2.4058ZM71.6011 66.3723C56.6449 69.4062 46.1626 67.2534 39.3905 62.8615C32.6265 58.4749 29.3778 51.7406 29.0594 45.1776C28.7393 38.5812 31.3767 32.2671 36.2601 28.6635C41.0784 25.1078 48.383 23.9785 57.8845 28.3261L59.1328 25.5981C48.8735 20.9037 40.364 21.9066 34.4787 26.2496C28.6584 30.5446 25.7025 37.8957 26.0629 45.323C26.4249 52.7838 30.1305 60.4318 37.7581 65.3785C45.3775 70.3199 56.724 72.4513 72.1975 69.3124L71.6011 66.3723ZM57.8845 28.3261C67.2578 32.6151 72.5391 40.5662 74.2029 50.0952C75.8742 59.6671 73.8833 70.8349 68.6108 81.3074C58.0779 102.228 34.6282 120.042 2.17156 116.465L1.84288 119.447C35.7116 123.18 60.2734 104.539 71.2904 82.6565C76.7928 71.7273 78.9614 59.9062 77.1582 49.5792C75.3475 39.2091 69.5203 30.3512 59.1328 25.5981L57.8845 28.3261Z" fill="white"/>
</svg>
